<?xml version="1.0" standalone="no"?>
<!DOCTYPE svg PUBLIC "-//W3C//DTD SVG 20010904//EN"
 "http://www.w3.org/TR/2001/REC-SVG-20010904/DTD/svg10.dtd">
<svg version="1.0" xmlns="http://www.w3.org/2000/svg"
 width="800.000000pt" height="600.000000pt" viewBox="0 0 800.000000 600.000000"
 preserveAspectRatio="xMidYMid meet">

<g transform="translate(0.000000,600.000000) scale(0.100000,-0.100000)"
fill="#000000" stroke="none">
<path d="M4288 2410 c-7 -24 -3 -38 8 -28 3 4 4 17 2 30 l-3 23 -7 -25z"/>
<path d="M4330 2420 c0 -5 7 -10 15 -10 8 0 15 5 15 10 0 6 -7 10 -15 10 -8 0
-15 -4 -15 -10z"/>
<path d="M6089 2414 c-10 -12 -10 -20 -1 -34 9 -14 8 -21 -4 -31 -22 -18 -13
-53 14 -57 13 -2 29 2 37 8 8 6 18 10 22 7 4 -3 9 6 9 19 2 19 -1 22 -11 14
-20 -16 -39 13 -26 39 8 15 7 23 -5 35 -19 20 -19 20 -35 0z m29 -21 c-4 -22
-22 -20 -26 1 -2 10 3 16 13 16 10 0 15 -7 13 -17z m11 -80 c-6 -7 -18 -13
-26 -13 -20 0 -28 27 -13 45 11 14 15 14 31 -1 14 -13 16 -20 8 -31z"/>
<path d="M4642 2398 c-2 -21 -6 -26 -19 -22 -17 5 -17 5 0 -6 9 -6 17 -19 17
-28 0 -39 -50 -57 -69 -24 -6 9 -11 12 -11 6 0 -21 29 -36 55 -30 28 7 38 35
32 92 -2 26 -4 30 -5 12z"/>
<path d="M5174 2361 c1 -48 5 -65 16 -68 11 -3 11 -2 3 4 -6 5 -14 35 -16 68
l-4 60 1 -64z"/>
<path d="M5544 2361 c1 -48 5 -65 16 -68 11 -3 11 -2 3 4 -6 5 -14 35 -16 68
l-4 60 1 -64z"/>
<path d="M4465 2382 c-15 -5 -20 -16 -21 -44 -1 -21 3 -35 8 -32 5 3 8 13 7
22 -3 32 1 40 21 45 25 6 37 -9 43 -53 4 -34 4 -33 5 7 2 33 -2 45 -17 53 -11
5 -21 10 -23 9 -2 -1 -12 -4 -23 -7z"/>
<path d="M4860 2380 c0 -5 6 -10 14 -10 20 0 30 -38 16 -55 -27 -33 -78 -5
-65 35 3 11 11 20 17 20 6 0 8 3 5 6 -10 10 -37 -16 -37 -36 0 -20 31 -50 52
-50 24 0 51 36 43 59 -7 23 -45 49 -45 31z"/>
<path d="M5066 2381 c-14 -5 -20 -19 -23 -46 -3 -43 3 -44 11 -1 3 15 13 34
23 42 20 15 17 16 -11 5z"/>
<path d="M5232 2374 c-39 -27 -23 -84 24 -84 46 0 59 60 19 86 -18 12 -24 11
-43 -2z m56 -36 c3 -22 -2 -29 -22 -34 -32 -8 -46 1 -46 30 0 30 9 38 40 34
19 -2 26 -10 28 -30z"/>
<path d="M5440 2370 c-11 -11 -20 -26 -20 -33 0 -24 35 -47 68 -44 26 2 32 6
32 25 0 28 -17 62 -31 62 -6 0 -3 -7 6 -16 31 -31 -6 -81 -42 -58 -26 16 -27
40 -2 63 13 12 20 21 16 21 -4 0 -16 -9 -27 -20z"/>
<path d="M6352 2374 c-25 -17 -29 -56 -8 -73 8 -7 30 -11 48 -8 31 3 33 6 31
37 -1 19 -10 40 -19 47 -22 16 -25 16 -52 -3z m56 -43 c-4 -30 -38 -40 -57
-17 -16 19 -6 53 17 59 26 5 43 -13 40 -42z"/>
<path d="M4403 2335 c0 -27 2 -38 4 -22 2 15 2 37 0 50 -2 12 -4 0 -4 -28z"/>
<path d="M4563 2365 c-9 -24 1 -27 15 -5 8 13 8 20 2 20 -6 0 -13 -7 -17 -15z"/>
<path d="M4720 2375 c0 -3 9 -23 19 -43 14 -28 17 -42 9 -56 -5 -9 -7 -20 -4
-23 3 -3 10 6 15 20 6 15 20 44 31 67 11 22 17 40 12 40 -4 0 -14 -17 -21 -37
l-14 -37 -19 37 c-17 33 -28 46 -28 32z"/>
<path d="M4931 2349 c-1 -44 14 -59 57 -56 31 2 32 3 30 47 -1 34 -2 38 -5 15
-6 -39 -21 -57 -47 -53 -16 2 -22 12 -27 43 l-6 40 -2 -36z"/>
<path d="M5330 2360 c-6 -12 -8 -30 -5 -40 7 -23 52 -37 67 -22 8 8 5 9 -11 5
-23 -6 -51 12 -51 33 0 7 7 20 16 28 8 9 11 16 5 16 -6 0 -15 -9 -21 -20z"/>
<path d="M5642 2333 l1 -48 4 43 c4 38 7 43 26 40 17 -2 23 -12 28 -43 l6 -40
2 36 c0 19 6 40 11 45 8 8 -3 11 -35 12 l-45 2 2 -47z"/>
<path d="M5747 2369 c6 -8 13 -30 16 -49 4 -28 4 -26 3 9 -1 30 -6 46 -16 49
-12 4 -13 2 -3 -9z"/>
<path d="M5801 2358 c-14 -36 9 -63 53 -63 34 -1 36 1 36 30 0 39 -16 55 -52
55 -20 0 -31 -7 -37 -22z m76 -4 c8 -21 -9 -48 -32 -53 -26 -5 -47 26 -34 50
12 23 57 25 66 3z"/>
<path d="M5912 2330 c1 -40 2 -41 5 -10 2 19 11 40 20 47 13 10 13 12 -6 10
-18 -1 -21 -7 -19 -47z"/>
<path d="M5973 2369 c11 -6 18 -24 19 -47 l1 -37 4 33 c4 34 -10 62 -31 62 -6
0 -3 -5 7 -11z"/>
<path d="M6241 2378 c-1 -12 32 -78 39 -78 8 0 42 71 37 77 -2 2 -10 -10 -17
-27 -16 -38 -23 -38 -43 3 -8 17 -16 29 -16 25z"/>
<path d="M6452 2331 c1 -41 2 -42 5 -11 3 19 9 40 14 46 5 7 3 11 -6 11 -11 0
-15 -12 -13 -46z"/>
<path d="M6500 2373 c21 -8 30 -25 24 -45 -3 -10 -1 -18 5 -18 6 0 11 7 11 16
0 26 -20 54 -38 53 -14 0 -14 -2 -2 -6z"/>
<path d="M4280 2357 c0 -9 11 -12 36 -9 41 5 40 7 -3 15 -23 5 -33 3 -33 -6z"/>
<path d="M4280 2315 c0 -8 4 -15 8 -15 5 0 9 7 9 15 0 8 -4 15 -9 15 -4 0 -8
-7 -8 -15z"/>
</g>
</svg>
